# xmcd
#
# Track frame offsets:
#	150
#	16830
#	33408
#	54467
#	70234
#	92384
#	110957
#	130490
#	145937
#	165527
#
# Disc length: 2475 seconds
#
# Revision: 1
# Processed by: cddbd v1.5.2PL0 Copyright (c) Steve Scherf et al.
# Submitted via: audiograbber 1.83.01
#
DISCID=8609a90a
DTITLE=Joseph Huber - Tongues Fire
DYEAR=2012
DGENRE=Country
TTITLE0=Fell Off The Wagon
TTITLE1=Where The Shadows Shiver To Sleep
TTITLE2=Drop In The Bucket
TTITLE3=Tongues Of Fire
TTITLE4=Hello Milwaukee
TTITLE5=Iron Rail
TTITLE6=An Old Mountain Tune
TTITLE7=Walkin' Fine
TTITLE8=Burden On The Wind
TTITLE9=Dance Around The Daggers
EXTD=
EXTT0=
EXTT1=
EXTT2=
EXTT3=
EXTT4=
EXTT5=
EXTT6=
EXTT7=
EXTT8=
EXTT9=
PLAYORDER=
